<?xml version="1.0" encoding="UTF-8"?>
<svg id="Layer_1" data-name="Layer 1" xmlns="http://www.w3.org/2000/svg" viewBox="0 0 1080 1080">
  <symbol id="star-shape" viewBox="0 0 1080 1080">
    <path d="M286.52,527.53c-1.22,1.37-2.64,1.97-4.57,2.18-.22.02-.23.32-.02.37,1.76.38,3.3,1.06,4.52,2.33,1.3,1.34,1.62,3.06,1.88,4.94.03.23.37.23.39,0,.14-1.6.25-3.23,1.25-4.47,1.08-1.34,2.84-2.57,4.59-2.88.14-.02.14-.22,0-.25-1.67-.36-3.3-1.18-4.34-2.4-.73-.85-1.34-2.88-1.76-4.49-.05-.2-.34-.17-.36.03-.18,1.86-.49,3.42-1.58,4.65Z"/>
  </symbol>
</svg>