<?xml version="1.0" encoding="UTF-8"?>
<svg id="Layer_1" data-name="Layer 1" xmlns="http://www.w3.org/2000/svg" viewBox="0 0 1080 1080">
  <defs>
    <style>
      .cls-1 {
        fill: #657bbb;
        stroke-width: 0px;
      }
    </style>
  </defs>
  <path class="cls-1" d="M671.29,716.35c.48-10.11,2.98-24.82,7.42-43.7.83-3.52,81.55-339.25,240.09-403.77-186.37-3.17-227.74,199.8-267.76,396.19-3.4,16.69-6.78,33.29-10.24,49.66l-3.11,14.75-3.99-14.53c-7.49-27.29-15.56-71.98-23.96-132.81-3.15-22.91-6.66-46.21-10.45-69.28-8.17-52.18-18.86-94.8-31.79-126.68-12.8-31.53-28.73-54.88-47.38-69.4-11.02-8.64-22.32-13.33-33.58-13.93-.83-.04-1.66-.07-2.49-.07-16.31-.02-32.11,8.77-47.06,26.13,2.36-.22,4.67-.33,6.93-.33,1.31,0,2.61.04,3.89.11,13.23.7,24.72,5.02,34.18,12.84,11.65,9.74,21.9,25.33,30.46,46.35,9.26,22.85,17.1,48.07,23.3,74.94l.23,1.01-.33.98c-8.12,24.12-16.54,48.47-25.02,72.37-7.68,21.87-15.08,43.18-22.2,63.94-7.1,20.67-13.56,40.78-19.22,59.8-5.67,19.03-10.31,37.08-13.8,53.63l-3.01,14.25-4.08-13.98c-8.36-28.63-16.43-73.34-23.98-132.87-7.95-58.34-15.84-104.22-23.45-136.34-7.16-29.97-16.05-56.11-26.41-77.65-22.83-46.8-55.88-71.67-98.25-73.92-2.13-.11-4.29-.17-6.47-.17-10.9-.01-21.2,1.29-30.54,3.84-18.4,5.36-34.21,14.71-46.98,27.8-12.17,12.47-20.91,26.96-25.95,43-11.13,38.09-1.85,62.47,7.9,76.22,11.95,16.86,31.87,27.6,53.29,28.73,17.51.93,33.57-4.49,45.2-15.27,11.81-10.94,18.29-26.9,18.74-45.92-.51-11.66-6.35-25.41-17.97-28.04-.36-.08-.72-.15-1.09-.22-.6-.1-1.21-.17-1.81-.2-7.04-.37-14.2,3.88-17.02,10.11-2.38,5.25-2.14,11.78-1.92,17.55.08,2.06.32,4.41.58,6.9.82,7.85,1.75,16.74-1.45,23.17-4.03,8.11-12.66,13.76-20.98,13.76-.55,0-1.09-.02-1.63-.04-9.68-.51-17.39-5.51-22.91-14.81-4.64-7.69-6.97-17.58-6.92-29.38.09-22.07,5.96-41.91,17.48-59.02,8.21-11.67,18.17-20.08,29.59-25,6.52-2.87,13.8-4.32,21.66-4.31.66,0,1.32.02,1.97.05,25.4,1.35,46.63,27.24,64.91,79.16,15.44,43.58,31.17,119.23,46.76,224.84,9.21,63.57,17.08,105.05,23.39,123.23,13.96,38.17,45.36,58.03,96,60.72,2.19.12,4.42.2,6.69.25-14.44-20.31-21.69-46.07-21.57-76.72.19-47.88,20.05-114.64,59.02-198.44l4.91-10.55,2.01,11.47c5.49,31.4,10.52,62.31,14.94,91.9,9.21,62.47,17.09,103.39,23.4,121.57,13.96,38.16,45.36,58.03,95.99,60.71,2.18.12,4.4.2,6.65.25-14.41-20.06-21.64-45.37-21.53-75.38.01-2.99.26-9.52.73-19.42Z"/>
  <g>
    <path class="cls-1" d="M467.62,477.84c-2.17-2.54-4.01-8.6-5.25-13.41-.15-.6-1.01-.52-1.07.09-.53,5.55-1.45,10.23-4.73,13.89-3.64,4.08-7.88,5.9-13.66,6.51-.64.07-.69.97-.06,1.1,5.25,1.12,9.84,3.17,13.51,6.97,3.87,4.01,4.82,9.15,5.62,14.74.1.69,1.1.67,1.16-.02.41-4.77.75-9.63,3.75-13.36,3.22-4.01,8.47-7.66,13.71-8.59.41-.07.4-.64,0-.73-4.98-1.09-9.86-3.53-12.97-7.18Z"/>
    <path class="cls-1" d="M754.66,583.15c-1.21-1.42-2.24-4.81-2.94-7.5-.09-.33-.57-.29-.6.05-.29,3.1-.81,5.72-2.64,7.77-2.04,2.28-4.4,3.3-7.64,3.64-.36.04-.39.54-.03.62,2.94.63,5.5,1.77,7.55,3.89,2.16,2.24,2.7,5.11,3.14,8.24.06.38.62.38.65-.01.23-2.67.42-5.39,2.09-7.47,1.8-2.24,4.74-4.28,7.66-4.8.23-.04.23-.36,0-.41-2.78-.61-5.51-1.98-7.25-4.01Z"/>
    <path class="cls-1" d="M597.79,328.85c-1.21-1.42-2.24-4.81-2.94-7.5-.09-.33-.57-.29-.6.05-.29,3.1-.81,5.72-2.64,7.77-2.04,2.28-4.4,3.3-7.64,3.64-.36.04-.39.54-.03.62,2.94.63,5.5,1.77,7.55,3.89,2.16,2.24,2.7,5.11,3.14,8.24.06.38.62.38.65-.01.23-2.67.42-5.39,2.09-7.47,1.8-2.24,4.74-4.28,7.66-4.8.23-.04.23-.36,0-.41-2.78-.61-5.51-1.98-7.25-4.01Z"/>
    <circle class="cls-1" cx="322.61" cy="558.28" r="6.5"/>
    <circle class="cls-1" cx="654.87" cy="470.51" r="6.5"/>
    <circle class="cls-1" cx="534.89" cy="705.61" r="9.98"/>
  </g>
</svg>