<?xml version="1.0" encoding="UTF-8"?>
<svg id="Layer_1" data-name="Layer 1" xmlns="http://www.w3.org/2000/svg" viewBox="0 0 1080 1080">
  <defs>
    <style>
      .cls-1 {
        fill: #d89e58;
        stroke-width: 0px;
      }
    </style>
  </defs>
  <g>
    <path class="cls-1" d="M542.99,551.12c.04.25.4.24.42,0,.15-1.74.27-3.51,1.37-4.87,1.17-1.46,3.09-2.79,5-3.13.15-.03.15-.23,0-.27-1.81-.4-3.59-1.29-4.73-2.62-.79-.93-1.46-3.13-1.91-4.89-.06-.22-.37-.19-.39.03-.19,2.02-.53,3.73-1.72,5.06-1.33,1.49-2.87,2.15-4.98,2.37-.23.02-.25.35-.02.4,1.91.41,3.59,1.16,4.92,2.54,1.41,1.46,1.76,3.33,2.05,5.37Z"/>
    <path class="cls-1" d="M767.08,698.57c-3.05-.67-6.04-2.17-7.95-4.4-1.33-1.56-2.46-5.27-3.22-8.22-.09-.37-.62-.32-.66.06-.32,3.4-.89,6.27-2.9,8.52-2.23,2.5-4.83,3.62-8.37,3.99-.39.04-.42.59-.04.68,3.22.69,6.03,1.94,8.28,4.27,2.37,2.46,2.96,5.61,3.45,9.04.06.42.68.41.71-.01.25-2.92.46-5.91,2.3-8.19,1.97-2.46,5.19-4.7,8.4-5.27.25-.05.25-.39,0-.45Z"/>
    <path class="cls-1" d="M385,638.33c-.79-.93-1.46-3.13-1.91-4.89-.06-.22-.37-.19-.39.03-.19,2.02-.53,3.73-1.72,5.06-1.33,1.49-2.87,2.15-4.98,2.37-.23.02-.25.35-.02.4,1.91.41,3.59,1.16,4.92,2.54,1.41,1.46,1.76,3.33,2.05,5.37.04.25.4.25.42,0,.15-1.74.27-3.51,1.37-4.87,1.17-1.46,3.09-2.79,5-3.13.15-.03.15-.23,0-.27-1.81-.4-3.59-1.29-4.73-2.62Z"/>
    <path class="cls-1" d="M707.64,540.22c-.79-.93-1.46-3.13-1.91-4.89-.06-.22-.37-.19-.39.03-.19,2.02-.53,3.73-1.72,5.06-1.33,1.49-2.87,2.15-4.98,2.37-.23.02-.25.35-.02.4,1.91.41,3.59,1.16,4.92,2.54,1.41,1.46,1.76,3.33,2.05,5.37.04.25.4.24.42,0,.15-1.74.27-3.51,1.37-4.87,1.17-1.46,3.09-2.79,5-3.13.15-.03.15-.23,0-.27-1.81-.4-3.59-1.29-4.73-2.62Z"/>
    <path class="cls-1" d="M809.89,469.59c-1.81-.4-3.59-1.29-4.73-2.62-.79-.93-1.46-3.13-1.91-4.89-.06-.22-.37-.19-.39.03-.19,2.02-.53,3.73-1.72,5.06-1.33,1.49-2.87,2.15-4.98,2.37-.23.02-.25.35-.02.4,1.91.41,3.59,1.16,4.92,2.54,1.41,1.46,1.76,3.33,2.05,5.37.04.25.4.25.42,0,.15-1.74.27-3.51,1.37-4.87,1.17-1.46,3.09-2.79,5-3.13.15-.03.15-.23,0-.27Z"/>
    <path class="cls-1" d="M471.34,360.36c-1.81-.4-3.59-1.29-4.73-2.62-.79-.93-1.46-3.13-1.91-4.89-.06-.22-.37-.19-.39.03-.19,2.02-.53,3.73-1.72,5.06-1.33,1.49-2.87,2.15-4.98,2.37-.23.02-.25.35-.02.4,1.91.41,3.59,1.15,4.92,2.54,1.41,1.46,1.76,3.33,2.05,5.37.04.25.4.24.42,0,.15-1.74.27-3.51,1.37-4.87,1.17-1.46,3.09-2.79,5-3.13.15-.03.15-.23,0-.27Z"/>
    <path class="cls-1" d="M298.81,584.36c-.79-.93-1.46-3.13-1.91-4.89-.06-.22-.37-.19-.39.03-.19,2.02-.53,3.73-1.72,5.06-1.33,1.49-2.87,2.15-4.98,2.37-.23.02-.25.35-.02.4,1.91.41,3.59,1.16,4.92,2.54,1.41,1.46,1.76,3.33,2.05,5.37.04.25.4.25.42,0,.15-1.74.27-3.51,1.37-4.87,1.17-1.46,3.09-2.79,5-3.13.15-.03.15-.23,0-.27-1.81-.4-3.59-1.29-4.73-2.62Z"/>
    <path class="cls-1" d="M251.53,349.69c-.79-.93-1.46-3.13-1.91-4.89-.06-.22-.37-.19-.39.03-.19,2.02-.53,3.73-1.72,5.06-1.33,1.49-2.87,2.15-4.98,2.37-.23.02-.25.35-.02.4,1.91.41,3.59,1.16,4.92,2.54,1.41,1.46,1.76,3.33,2.05,5.37.04.25.4.25.42,0,.15-1.74.27-3.51,1.37-4.87,1.17-1.46,3.09-2.79,5-3.13.15-.03.15-.23,0-.27-1.81-.4-3.59-1.29-4.73-2.62Z"/>
    <path class="cls-1" d="M547.69,673.69c-.86-1-1.59-3.39-2.07-5.3-.06-.24-.4-.21-.42.04-.21,2.19-.57,4.04-1.87,5.49-1.44,1.61-3.11,2.33-5.39,2.57-.25.03-.27.38-.02.44,2.07.44,3.89,1.25,5.33,2.75,1.53,1.58,1.91,3.61,2.22,5.82.04.27.44.27.46,0,.16-1.88.3-3.8,1.48-5.28,1.27-1.58,3.34-3.02,5.41-3.39.16-.03.16-.25,0-.29-1.97-.43-3.89-1.4-5.12-2.84Z"/>
    <path class="cls-1" d="M306.93,495.7c-1.19-1.4-2.21-4.73-2.89-7.39-.08-.33-.56-.29-.59.05-.29,3.06-.8,5.63-2.6,7.65-2.01,2.25-4.34,3.25-7.52,3.58-.35.04-.38.53-.03.61,2.89.62,5.42,1.75,7.44,3.84,2.13,2.21,2.66,5.04,3.1,8.12.05.38.61.37.64-.01.23-2.63.41-5.31,2.06-7.36,1.77-2.21,4.67-4.22,7.55-4.73.23-.04.22-.35,0-.4-2.74-.6-5.43-1.95-7.14-3.95Z"/>
    <path class="cls-1" d="M933.25,368.3c-.92-1.08-1.71-3.66-2.24-5.71-.07-.25-.43-.22-.46.04-.22,2.36-.62,4.35-2.01,5.92-1.55,1.74-3.35,2.51-5.82,2.77-.27.03-.29.41-.03.47,2.24.48,4.19,1.35,5.75,2.97,1.65,1.71,2.05,3.9,2.39,6.28.04.29.47.29.5,0,.17-2.03.32-4.1,1.59-5.69,1.37-1.71,3.61-3.26,5.84-3.66.18-.03.17-.27,0-.31-2.12-.46-4.2-1.5-5.52-3.06Z"/>
    <circle class="cls-1" cx="850.02" cy="401.83" r="5.3"/>
    <path class="cls-1" d="M175.43,416.81c-2.05,0-3.71,1.66-3.71,3.71s1.66,3.71,3.71,3.71,3.71-1.66,3.71-3.71-1.66-3.71-3.71-3.71Z"/>
    <circle class="cls-1" cx="661.15" cy="458.42" r="3.71"/>
    <path class="cls-1" d="M436.03,553.51c-3.27,0-5.92,2.65-5.92,5.92s2.65,5.92,5.92,5.92,5.92-2.65,5.92-5.92-2.65-5.92-5.92-5.92Z"/>
    <circle class="cls-1" cx="621.89" cy="590.85" r="3.71"/>
    <circle class="cls-1" cx="477.32" cy="710.15" r="3.71"/>
    <path class="cls-1" d="M830.06,571.19c-2.65,0-4.8,2.15-4.8,4.8s2.15,4.8,4.8,4.8,4.8-2.15,4.8-4.8-2.15-4.8-4.8-4.8Z"/>
    <path class="cls-1" d="M393.28,404.95c-1.11-1.3-2.06-4.4-2.69-6.87-.08-.31-.52-.27-.55.05-.27,2.84-.74,5.24-2.42,7.12-1.87,2.09-4.04,3.02-7,3.33-.33.03-.35.5-.03.56,2.69.58,5.04,1.62,6.92,3.57,1.98,2.05,2.47,4.69,2.88,7.55.05.35.57.34.6-.01.21-2.44.39-4.94,1.92-6.84,1.65-2.06,4.34-3.92,7.02-4.4.21-.04.21-.33,0-.38-2.55-.56-5.05-1.81-6.64-3.68Z"/>
  </g>
  <g>
    <path class="cls-1" d="M354.78,343.18c-5.35,5.58-10.14,12.59-14.23,20.84-4.1,8.29-7.39,18.01-9.75,28.9-2.37,10.9-3.66,23.34-3.83,36.95,0,12.89,1.27,25.42,3.76,37.22,1.67,7.45,4.26,16.28,7.67,26.22,1.61,4.56,2.97,8.86,4.02,12.77,1.09,4.01,1.64,8.13,1.64,12.25,0,2.68-.41,5.41-1.23,8.15,7.35-1.86,11.55-6.59,12.82-14.39l.98-6.04,2.02,5.78c3.3,9.41,9.23,16.02,17.59,19.61,4.61,1.82,9.36,2.75,14.12,2.75,14.91,0,28.1-8.51,39.22-25.28,4.81-7.4,9-15.93,12.44-25.34,3.46-9.45,6.05-18.9,7.72-28.12,1.75-9.57,2.63-18.17,2.63-25.58,0-14.25-1.14-27.2-3.39-38.47-4.31-21.55-12.23-38.37-23.52-49.97-10.03-10.25-21.46-15.45-33.96-15.45h-5.78c-3.22.08-7.89,1.59-13.86,4.47-6,2.9-11.76,7.18-17.09,12.74ZM363.36,491.35c5.63-14.24,8.99-40.52,9.71-76.02l-4.53-3.91c-.74-.64-1.19-1.57-1.22-2.55-.03-.98.36-1.93,1.07-2.61l4.14-4c-5.77-5.49-9.04-13.28-9.04-21.62,0-9.8,4.77-19.12,12.44-24.32,1.24-.84,2.61-1.59,4.17-2.29,2.1-.94,4.47-1.14,6.21-1.29,1.28-.11,2.53-.16,3.71-.16,5.15,0,9.44,1.02,12.76,3.03,3.9,2.36,7.21,5.79,9.57,9.91,2.6,4.53,3.98,9.76,3.98,15.12,0,8.26-3.22,15.97-8.88,21.42l4.35,4.2c.71.68,1.1,1.63,1.07,2.61s-.47,1.91-1.21,2.55l-4.66,4.02c.73,35.45,4.08,61.7,9.71,75.91.93,2.34-.07,5.09-2.21,6.12-3.75,1.81-16.46,8.27-22.61,15.39-.47.54-1.14.85-1.84.85s-1.37-.31-1.84-.85c-6.16-7.11-18.86-13.57-22.61-15.39-2.15-1.04-3.14-3.78-2.21-6.12Z"/>
    <path class="cls-1" d="M840.99,486.88c-1.56-.54-3.23-.9-4.93-1.07.13.15.25.3.37.45,1.18,1.53,2.04,3.3,2.56,5.25.49,1.88.75,3.76.75,5.61,0,2.47-.4,4.97-1.21,7.5-1.71,4.59-4.41,7.74-8,9.36-1.86.87-3.76,1.3-5.64,1.3-3.28,0-6.83-.97-10.61-2.91-12.19-7.05-33.17-16.51-43.47-11.45l-5.57,2.73s5.31-4.04,8.12-21.46c.47-2.92.69-21.06.95-42.07l.06-4.75,1.32-.19c.15-.02,3.67-.51,9.07-.51,9.79,0,27.25,1.7,40.11,12.36-1.49-5.32-4.43-10.18-8.4-13.75l-1.21-1.09,1.15-1.16c5.34-5.41,9.53-11.98,12.3-19.25-9.95,7.32-29.71,13.54-45.1,13.54-2.83,0-5.45-.21-7.79-.64l-1.3-.24.06-4.43c.82-60.06.9-66.34,12.25-75.13,4.79-3.71,11.53-5.84,18.5-5.84,3.72,0,7.32.63,10.4,1.83,4.76,1.85,8.17,5.48,9.13,9.7,1.27,5.57-1.49,10.38-4.16,15.03-2.71,4.72-5.26,9.17-3.22,13.93.97,2.26,3.25,4.07,5.94,4.74,1.07.27,2.17.4,3.27.4,8.57,0,17.41-8.06,20.55-18.74,1.59-5.38,3.7-18.91-10.88-28.31-2.47-1.6-5.32-2.95-8.47-4.03-5.6-1.91-11.68-2.88-18.07-2.88-11.97,0-22.3,3.29-28.47,5.26-1.64.52-2.94.94-3.91,1.17-6.5,1.56-13.46,3.01-20.26,3.01-3.24,0-6.2-.31-9.06-.95-6.39-1.44-11.7-4.64-16.79-7.86,13.19,20.03,32.62,58.86,16.82,144.27-2.54,13.7-5.94,29.03-14.25,41.69,1.77-.63,3.59-1.14,5.19-1.59.59-.17,1.14-.32,1.62-.47,4.8-1.44,9.77-2.32,14.76-2.62,1.01-.06,2.01-.09,2.99-.09,9.1,0,17.16,2.54,26.14,8.24l7.66,4.92c6.52,4.46,12.34,7.75,17.32,9.76,4.03,1.71,8.26,2.58,12.55,2.58,5.87,0,11.24-1.44,15.95-4.28,5.26-3.18,9.35-7.64,12.15-13.27,2.19-4.39,3.3-9.01,3.3-13.72,0-3.64-.66-7.08-1.94-10.19-2.14-4.86-5.6-8.04-10.58-9.71Z"/>
    <path class="cls-1" d="M1031.74,521.46c-1.67-5.28-7.38-8.09-12.3-8.53-.69-.06-1.39-.09-2.08-.09-4.24,0-8.6,1.1-12.81,2.16l-1.84.46c-4.03,1-7.58,1.48-10.85,1.48-10.21,0-17.39-4.97-21.34-14.77-1.34-3.34-1.77-9.52-2.31-17.34-1.11-16.09-2.79-40.39-14.4-57.18l-.73-1.06.9-.92c20.69-21,29.69-50.48,21.89-71.7-4.9-13.33-16.01-21.42-31.29-22.77-3.65-.32-8.42-.49-14.18-.49-13.57,0-29.99.88-41.99,1.53-5.68.31-10.34.56-13.07.62,15.95,33,17.02,75.47,15.05,105.62l-.05.7-.56.43c-.93.72-1.72,1.3-2.52,1.64-2.49,1.14-5.22,1.74-7.89,1.74-1.28,0-2.56-.14-3.79-.41-5.64-1.27-10.5-5.33-13.01-10.6-.95,3.11-1.13,6.48-.5,9.68.92,4.48,3.46,8.62,6.98,11.36,3.65,2.85,8.67,4.48,14.51,4.69.55.02,1.1.02,1.65.02s1.08,0,1.62-.02l1.8-.05-.22,1.79c-3.04,25.01-8.28,46.47-11.89,54.74-1.77,4.09-3.97,7.59-6.54,10.41-.24.32-.71.82-2.23,2.13,2.07-.62,4.15-1.38,6.22-2.27,3.42-1.4,7.59-3.8,12.3-7.08,5.15-4.08,5.84-4.82,5.88-4.85l.99-1.32,1.26,1.06c6.48,5.43,12.12,9.38,16.75,11.75,2.5,1.26,5.23,2.35,8.32,3.34-1.53-1.42-2.67-2.61-3.45-3.59-1.54-2-2.8-4.13-3.76-6.45-2.76-8.22-4-22.32-3.77-43.12l.33-20.91,1.05-.35c9.09-2.99,18.47-7.63,27.1-13.43l1-.67.9.8c15.84,14.04,16.37,33.15,16.89,51.64.44,15.75.85,30.63,11.34,40.02,8.71,7.8,21.59,12.45,34.45,12.45h0c6.7,0,13.06-1.31,18.4-3.8,4.37-2.02,7.5-4.42,9.57-7.35,2.46-3.44,3.31-7.71,2.22-11.16ZM949.39,399.01c-2.6,3.88-5.49,7.56-8.63,11.02-3.14,3.45-6.52,6.67-10.12,9.63-3.58,2.95-7.38,5.63-11.36,8.02-3.28,1.97-6.67,3.65-10.14,5.19-.96.43-1.92.84-2.89,1.25.11-.37.23-.75.33-1.12.78-2.67,1.42-5.38,1.94-8.12.5-2.67.71-5.43.98-8.14.69-6.9,1.11-13.8,1.25-20.5.16-7.41.1-14.83-.55-22.22-1.43-14.54-7.8-30.87-10.88-34.89,8.02-1.86,30.88-.87,43.08,3.8,5.06,1.94,9.54,3.98,12.97,9.35,3.25,5.08,4.93,11.45,4.73,17.93-.26,8.37-3.27,17.04-9.22,26.5-.48.77-.98,1.54-1.49,2.29Z"/>
    <path class="cls-1" d="M470.31,737.33c-3.26-2.71-7.54-4.23-12.7-4.52-.29-.02-.59-.03-.9-.04.26.23.52.47.76.72,1.63,1.71,2.7,3.58,3.18,5.53.45,1.84.64,3.57.56,5.16-.16,2.94-1.08,5.65-2.75,8.06-1.28,1.83-2.93,3.15-4.98,3.94-4.19,1.41-8.38,2.12-12.44,2.12-.66,0-1.33-.02-1.99-.06-7.8-.44-16.2-3.62-24.95-9.42-3.85-2.48-7.75-5.17-11.59-8.01-4.82-3.61-8.95-6.46-13.01-8.96-2.29-1.41-4.63-2.49-7.11-3.63-1.48-.68-3.01-1.38-4.52-2.16-6.86-3.53-14.51-5.06-22.19-5.11-3.72-.02-7.45.4-11.07,1.26,2.01-3.52,4.26-6.96,5.67-10.76,1.37-3.7,2.04-7.63,2.57-11.53.12-.9.24-1.8.36-2.7.15-1.2.31-2.39.48-3.57,1.08-7.52,1.77-14.31,2.11-20.73.29-7.12.45-14.51.48-22.01.14-9.56.38-17.45.7-23.43.4-7.45.9-13.31,1.49-17.37,1.03-8.65,3-15.8,5.83-21.22,4.38-9.09,11.36-13.7,20.73-13.7.56,0,1.12.02,1.69.05,5.77.33,10.48,2.05,14.06,5.18,3.84,3.73,5.63,8.37,5.34,13.8-.17,3.08-1.03,6.12-2.56,9.01-1.28,2.52-3.01,4.75-5.17,6.65,5.23-.21,9.79-1.35,13.54-3.38,5.96-3.43,9-7.86,9.31-13.56.14-2.59-.4-5.25-1.61-7.88-2.01-4.32-5.6-8-10.64-10.92-5.88-3.23-13.16-5.11-21.64-5.59-1.79-.1-3.55-.15-5.25-.15-17.92,0-30.79,5.76-38.28,17.14-3.58,5.39-5.88,11.44-6.85,17.91-.34,2.87-.56,5.38-.67,7.42l-.12,4.86c.12,11.47-.1,22.69-.67,33.33-.55,10.19-1.19,18.75-1.92,25.44-1.22,10.92-3.1,21.09-5.76,31.1-1.29,4.87-2.32,8.71-5.15,13.53l-7.43,12.64c3.18-.69,7.41-1.07,11.24-1.07,6.42,0,12.78.89,18.87,2.65,12.35,3.39,25.42,10.48,39.25,17.98,19.9,10.8,40.47,21.96,59.52,21.96,6.56,0,12.47-1.3,18.03-3.95,8.9-4.49,16.33-15.08,12.62-25.77-.97-2.36-2.48-4.47-4.46-6.24Z"/>
    <path class="cls-1" d="M527.07,642.78c-1.12-.28-2.28-.58-3.44-.91l-1.45-.41.36-1.47c.85-3.42,1.58-5.96,2.02-7.47.07-.24.13-.44.18-.62l.17-.71c6.02-24.35,5.64-41.83-1.07-50.55-2.94-3.82-7.48-6.83-13.13-8.72-5.59-1.87-11.79-2.82-18.45-2.82-.56,0-1.12,0-1.72.02-14.64,0-25.3,4.46-31.7,13.26-5.59,7.7-8.43,19.65-8.43,35.52,0,5.92.5,11.98.95,17.32.36,4.27,1,8.58,1.62,12.75.6,4.01,1.22,8.17,1.59,12.32.52,5.85.68,11.75.48,17.56-.02.49-.03,1-.04,1.51-.05,2.35-.1,4.79-.77,7.07-.83,2.82-1.95,5.46-3.34,7.83-2.65,4.57-7.05,8.16-12.37,10.12-3.18,1.17-6.68,1.76-10.39,1.76-2.07,0-4.22-.19-6.37-.56-3.07-.53-6.28-1.21-8.82-3.23-2.79-2.22-3.65-5.93-2.06-8.81.86-1.56,2.33-2.79,4.48-3.76.66-.3,1.33-.55,2.01-.81.87-.33,1.69-.64,2.46-1.04,2.56-1.34,4.57-3.84,5.37-6.68,1.58-5.59-1.84-12.45-7.02-14.12-1.49-.48-3.14-.73-4.89-.73-3.61,0-7.35,1.05-10.25,2.89-3.32,2.1-5.99,5.42-7.51,9.33-2,5.14-1.05,10.74.1,16.04,1.05,4.81,3.93,9.35,8.13,12.77,4.15,3.38,9.5,5.7,15.93,6.91,1.27.24,2.58.43,3.87.57,1.8.19,3.63.29,5.45.29,7.13,0,14.32-1.52,20.79-4.4,18.21-8.1,26.54-27.31,25.47-58.73l-.03-.88.74-.48c4.28-2.79,9.21-4.27,14.24-4.27,1.96,0,3.91.23,5.8.68,4.84,1.15,8.8,3,13.36,4.92-1.99,7.87-3.19,14.91-4.44,22.35-.05.29-.1.58-.14.87-2.04,12.49-2.95,25.26-2.71,37.95.2,10.3,1.16,20.63,2.85,30.69,1.45,8.61,3.83,18.18,10.5,23.87,3.24,2.76,7.47,4.34,11.63,4.34,1.87,0,3.67-.31,5.35-.94,5.75-2.13,9.87-8.01,9.79-13.99,0-.57-.05-1.17-.13-1.77-.68-5.1-3.91-9.75-7.03-14.26-.49-.71-.98-1.42-1.46-2.12-12.51-18.43-18.63-41.99-16.8-64.64.52-6.38,1.57-12.84,2.58-19.08l.26-1.59,1.39.06c.86.04,1.72.06,2.57.06,4.56,0,8.22-.71,11.84-2.3,5-2.19,9.41-5.69,12.76-10.06-3.99,1.52-8.28,2.31-12.66,2.31-2.87,0-5.72-.35-8.48-1.02ZM512.02,634.24l-.31,2.35-2.04-1.22c-1.9-1.14-3.95-2.31-6.06-3.23-3.5-1.52-7.25-2.28-11.15-2.28-3.5,0-6.97.62-10.32,1.84-2.01.73-4.03,1.74-6,2.99l-2.07,1.31-.3-2.44c-.85-6.84-1.91-13.27-2.76-18.44-.95-5.78-1.7-10.34-1.8-13.14-.19-5.61,1.11-11.2,3.56-15.35,2.67-4.52,7.1-7.87,12.15-9.19,1.63-.43,3.33-.65,5.05-.65,3.46,0,6.9.88,9.93,2.54,4.78,2.61,8.81,7.32,11.3,13.16,4.12,8.07,2.72,27.16.81,41.76Z"/>
    <path class="cls-1" d="M698.01,346.27c-13.02-13.8-28.92-20.86-47.25-20.97l-2.75-.02c-13.94,0-25.52,3.71-34.36,10.96-10.95,10.03-15.25,22.9-12.76,38.23.6,3.72,1.85,7.57,3.72,11.43,7.2,14.92,22.05,45.69,8.84,96.24,4.09-1.77,8.38-5.79,11.89-11.23,4.47-6.92,14.06-26.46,6.69-58.34l-.42-1.83,1.88-.08c.26-.01.52-.02.77-.02,1.39,0,2.77.14,4.1.28,1.28.13,2.49.26,3.7.26h.3c11.18,0,20.12-3.84,26.55-11.35,3.49-4.47,5.27-9.2,5.3-14.06.02-4.34-1.4-8.06-4.31-11.3-4.39-4.41-10.47-6.67-18.07-6.71h-.28c-2.76,0-5.66.24-8.69.73,4.05,2.2,7.19,6.05,9.36,11.53,1.18,3.1,1.78,6.07,1.76,8.83-.03,5.39-2.1,9.2-6.26,11.38-1.59.68-3.26,1.03-5.04,1.03-5.47-.03-10.44-2.57-14.8-7.56-5.87-7.04-8.81-15.86-8.76-26.22.05-9.32,2.91-17.14,8.54-23.28,6.11-6.11,12.77-9.21,19.79-9.21,15,0,30.29,14.35,40.89,38.39,15.79,35.81,18.71,89.76-12.2,123.61-11.7,12.81-29.34,20.16-48.4,20.16-1.87,0-3.77-.07-5.63-.22-24.6-1.92-36.63-18.21-42.39-31.54-3.54-8.2-5.23-17.26-5-26.99,3.37-61.08-6.03-83.47-11.65-96.85-1.73-4.12-3.1-7.37-3.61-10.65-.26-1.69.02-3.03.84-3.99.7-.82,1.77-1.28,3-1.28,2.11,0,4.54,1.32,5.77,3.13,2.92,4.3,5.72,6.3,9.38,6.68.37.04.75.06,1.12.06,4.29,0,8.48-2.5,10.43-6.22,2.78-5.31.94-12.78-4.27-17.37-5.59-4.92-13.22-5.95-18.65-5.95h-.27c-5.01.03-8.91.93-11.92,2.73-5.12,3.07-8.08,8.34-8.12,14.45-.03,5.42,1.57,11.23,3.59,18.58.67,2.44,1.34,4.89,1.97,7.35,1.02,3.97,1.93,7.97,2.69,12,.91,4.83,1.6,9.71,2.08,14.61.57,5.88.83,11.78.82,17.69,0,7.09-.39,14.19-1.07,21.25-.39,4.05-.88,8.08-1.45,12.11-.29,2.07-1.41,11.75-1.07,11.98-4.12-2.8-6.91-7.63-8.14-9.66-1.72-2.83-3.28-5.76-4.72-8.75-3.25-6.76-5.85-13.82-8.06-20.98-2.27-7.41-4.19-15.04-6.04-22.42-1.71-6.8-3.47-13.83-5.51-20.63-2.8-9.37-6.98-21.35-14.5-30.91-5.83-7.42-15.85-15.45-26.49-15.74-.44-.01-.89-.02-1.33-.02-7.98,0-15.33,1.92-21.34,5.5.52-.08,1.05-.14,1.59-.16.27,0,.54-.01.81-.01,3.3,0,6.49.66,9.48,1.95,3.7,1.6,7.38,4.36,10.09,7.57,2.17,2.57,3.45,6.05,3.62,9.81.4,8.86.85,18.91.89,28.9.08,18.38.09,34.98-.6,51.93-.1,2.54-.2,5.26-.31,8.12-1.04,28.47-2.62,71.49-12.71,85.09-.76,1.02-1.6,2.05-2.52,3.1,4.9-2.17,20.7-10.08,22.11-12.29-.26.4,14.66,9.21,18.9,10.02-.28-.7-.62-1.53-1.01-2.53-1.03-2.59-2.39-6.18-3.05-8.61-2.56-9.47-4.04-23.34-4.4-41.23-.05-2.59-.07-5.18-.08-7.77-.02-12.76.33-25.72.67-38.26.32-11.82.8-44.5.86-51.04,4.09,5.03,9.73,36.16,11.7,43.34,3.28,11.94,7.18,23.84,11.59,35.38,4.24,11.11,9.69,24.01,17.93,35.42,17,23.54,51.51,39.35,85.88,39.35,52.6,0,87.6-34.34,93.63-91.86,1.91-18.22.56-36.17-4-53.38-4.69-17.66-11.85-31.69-21.28-41.69Z"/>
    <path class="cls-1" d="M789.25,589.5c-13.02-13.8-28.92-20.86-47.25-20.97l-2.75-.02c-13.94,0-25.52,3.71-34.36,10.96-10.95,10.03-15.25,22.9-12.76,38.23.6,3.72,1.85,7.57,3.72,11.43,7.2,14.92,22.05,45.69,8.84,96.24,4.09-1.77,8.38-5.79,11.89-11.23,4.47-6.92,14.06-26.46,6.69-58.34l-.42-1.83,1.88-.08c.26-.01.52-.02.77-.02,1.39,0,2.77.14,4.1.28,1.28.13,2.49.26,3.7.26h.3c11.18,0,20.12-3.84,26.55-11.35,3.49-4.47,5.27-9.2,5.3-14.06.02-4.34-1.4-8.06-4.31-11.3-4.39-4.41-10.47-6.67-18.07-6.71h-.28c-2.76,0-5.66.24-8.69.73,4.05,2.2,7.19,6.05,9.36,11.53,1.18,3.1,1.78,6.07,1.76,8.83-.03,5.39-2.1,9.2-6.26,11.38-1.59.68-3.26,1.03-5.04,1.03-5.47-.03-10.44-2.57-14.8-7.56-5.87-7.04-8.81-15.86-8.76-26.22.05-9.32,2.91-17.14,8.54-23.28,6.11-6.11,12.77-9.21,19.79-9.21,15,0,30.29,14.35,40.89,38.39,15.79,35.81,18.71,89.76-12.2,123.61-11.7,12.81-29.34,20.16-48.4,20.16-1.87,0-3.77-.07-5.63-.22-24.6-1.92-36.63-18.21-42.39-31.54-3.54-8.2-5.23-17.26-5-26.99,3.37-61.08-6.03-83.47-11.65-96.85-1.73-4.12-3.1-7.37-3.61-10.65-.26-1.69.02-3.03.84-3.99.7-.82,1.77-1.28,3-1.28,2.11,0,4.54,1.32,5.77,3.13,2.92,4.3,5.72,6.3,9.38,6.68.37.04.75.06,1.12.06,4.29,0,8.48-2.5,10.43-6.22,2.78-5.31.94-12.78-4.27-17.37-5.59-4.92-13.22-5.95-18.65-5.95h-.27c-5.01.03-8.91.93-11.92,2.73-5.12,3.07-8.08,8.34-8.12,14.45-.03,5.42,1.57,11.23,3.59,18.58.67,2.44,1.34,4.89,1.97,7.35,1.02,3.97,1.93,7.97,2.69,12,.91,4.83,1.6,9.71,2.08,14.61.57,5.88.83,11.78.82,17.69,0,7.09-.39,14.19-1.07,21.25-.39,4.05-.88,8.08-1.45,12.11-.29,2.07-1.41,11.75-1.07,11.98-4.12-2.8-6.91-7.63-8.14-9.66-1.72-2.83-3.28-5.76-4.72-8.75-3.25-6.76-5.85-13.82-8.06-20.98-2.27-7.41-4.19-15.04-6.04-22.42-1.71-6.8-3.47-13.83-5.51-20.63-2.8-9.37-6.98-21.35-14.5-30.91-5.83-7.42-15.85-15.45-26.49-15.74-.44-.01-.89-.02-1.33-.02-7.98,0-15.33,1.92-21.34,5.5.52-.08,1.05-.14,1.59-.16.27,0,.54-.01.81-.01,3.3,0,6.49.66,9.48,1.95,3.7,1.6,7.38,4.36,10.09,7.57,2.17,2.57,3.45,6.05,3.62,9.81.4,8.86.85,18.91.89,28.9.08,18.38.09,34.98-.6,51.93-.1,2.54-.2,5.26-.31,8.12-1.04,28.47-2.62,71.49-12.71,85.09-.76,1.02-1.6,2.05-2.52,3.1,4.9-2.17,20.7-10.08,22.11-12.29-.26.4,14.66,9.21,18.9,10.02-.28-.7-.62-1.53-1.01-2.53-1.03-2.59-2.39-6.18-3.05-8.61-2.56-9.47-4.04-23.34-4.4-41.23-.05-2.59-.07-5.18-.08-7.77-.02-12.76.33-25.72.67-38.26.32-11.82.8-44.5.86-51.04,4.09,5.03,9.73,36.16,11.7,43.34,3.28,11.94,7.18,23.84,11.59,35.38,4.24,11.11,9.69,24.01,17.93,35.42,17,23.54,51.51,39.35,85.88,39.35,52.6,0,87.6-34.34,93.63-91.86,1.91-18.22.56-36.17-4-53.38-4.69-17.66-11.85-31.69-21.28-41.69Z"/>
    <path class="cls-1" d="M264.99,494.13c.2-4.31,1.27-10.57,3.16-18.61.35-1.5,34.72-144.45,102.23-171.93-79.36-1.35-96.97,85.08-114.01,168.7-1.45,7.11-2.89,14.17-4.36,21.15l-1.33,6.28-1.7-6.19c-3.19-11.62-6.62-30.65-10.2-56.55-1.34-9.75-2.84-19.68-4.45-29.5-3.48-22.22-8.03-40.37-13.54-53.94-5.45-13.43-12.24-23.37-20.17-29.55-4.69-3.68-9.5-5.68-14.3-5.93-.35-.02-.71-.03-1.06-.03-6.95,0-13.67,3.73-20.04,11.13,1-.09,1.99-.14,2.95-.14.56,0,1.11.02,1.66.05,5.63.3,10.53,2.14,14.55,5.47,4.96,4.15,9.32,10.78,12.97,19.74,3.94,9.73,7.28,20.47,9.92,31.91l.1.43-.14.42c-3.46,10.27-7.04,20.64-10.65,30.82-3.27,9.31-6.42,18.39-9.45,27.23-3.02,8.8-5.78,17.37-8.18,25.46-2.41,8.1-4.39,15.79-5.88,22.84l-1.28,6.07-1.74-5.95c-3.56-12.19-6.99-31.23-10.21-56.58-3.39-24.84-6.75-44.38-9.99-58.06-3.05-12.76-6.83-23.89-11.25-33.07-9.72-19.93-23.79-30.52-41.84-31.48-.91-.05-1.83-.07-2.75-.07-4.64,0-9.03.55-13.01,1.64-7.84,2.28-14.57,6.26-20.01,11.84-5.18,5.31-8.9,11.48-11.05,18.31-4.74,16.22-.79,26.6,3.36,32.46,5.09,7.18,13.57,11.75,22.69,12.23,7.46.4,14.29-1.91,19.25-6.5,5.03-4.66,7.79-11.46,7.98-19.55-.22-4.97-2.7-10.82-7.65-11.94-.15-.04-.31-.07-.46-.09-.26-.04-.51-.07-.77-.09-3-.16-6.04,1.65-7.25,4.3-1.01,2.23-.91,5.02-.82,7.47.03.88.14,1.88.25,2.94.35,3.34.74,7.13-.62,9.87-1.72,3.45-5.39,5.86-8.93,5.86-.23,0-.47,0-.69-.02-4.12-.22-7.41-2.34-9.76-6.31-1.98-3.28-2.97-7.48-2.95-12.51.04-9.4,2.54-17.84,7.44-25.13,3.5-4.97,7.74-8.55,12.6-10.64,2.78-1.22,5.88-1.84,9.22-1.84.28,0,.56,0,.84.02,10.81.57,19.86,11.6,27.64,33.71,6.58,18.56,13.27,50.77,19.91,95.74,3.92,27.07,7.27,44.73,9.96,52.47,5.94,16.25,19.32,24.71,40.88,25.85.93.05,1.88.08,2.85.11-6.15-8.65-9.24-19.62-9.19-32.67.08-20.39,8.54-48.81,25.13-84.5l2.09-4.49.86,4.88c2.34,13.37,4.48,26.53,6.36,39.13,3.92,26.6,7.28,44.03,9.96,51.77,5.94,16.25,19.31,24.71,40.87,25.85.93.05,1.87.08,2.83.11-6.13-8.54-9.22-19.32-9.17-32.1,0-1.27.11-4.06.31-8.27Z"/>
  </g>
</svg>