<?xml version="1.0" encoding="UTF-8"?>
<svg id="Layer_1" data-name="Layer 1" xmlns="http://www.w3.org/2000/svg" viewBox="0 0 1080 1080">
  <defs>
    <style>
      .cls-1 {
        fill: #d89e58;
        stroke-width: 0px;
      }
    </style>
  </defs>
  <g>
    <path class="cls-1" d="M286.52,527.53c-1.22,1.37-2.64,1.97-4.57,2.18-.22.02-.23.32-.02.37,1.76.38,3.3,1.06,4.52,2.33,1.3,1.34,1.62,3.06,1.88,4.94.03.23.37.23.39,0,.14-1.6.25-3.23,1.25-4.47,1.08-1.34,2.84-2.57,4.59-2.88.14-.02.14-.22,0-.25-1.67-.36-3.3-1.18-4.34-2.4-.73-.85-1.34-2.88-1.76-4.49-.05-.2-.34-.17-.36.03-.18,1.86-.49,3.42-1.58,4.65Z"/>
    <path class="cls-1" d="M194.57,489.4c-.85.96-1.85,1.38-3.2,1.52-.15.02-.16.23-.01.26,1.23.26,2.31.74,3.17,1.63.91.94,1.13,2.14,1.32,3.45.02.16.26.16.27,0,.1-1.12.18-2.26.88-3.13.75-.94,1.98-1.79,3.21-2.01.1-.02.09-.15,0-.17-1.17-.25-2.31-.83-3.04-1.68-.51-.6-.94-2.01-1.23-3.14-.04-.14-.24-.12-.25.02-.12,1.3-.34,2.4-1.11,3.26Z"/>
    <path class="cls-1" d="M463.75,556.8c-1.23,1.38-2.66,1.99-4.62,2.2-.22.02-.23.33-.02.37,1.78.38,3.33,1.07,4.57,2.36,1.31,1.36,1.63,3.09,1.9,4.98.03.23.37.23.39,0,.14-1.61.25-3.26,1.27-4.52,1.09-1.36,2.86-2.59,4.64-2.91.14-.03.14-.22,0-.25-1.68-.37-3.33-1.19-4.39-2.43-.73-.86-1.36-2.91-1.78-4.54-.05-.2-.34-.18-.36.03-.18,1.88-.49,3.46-1.6,4.7Z"/>
    <path class="cls-1" d="M881.08,581.02c-.71.8-1.54,1.15-2.67,1.27-.13.01-.14.19-.01.22,1.03.22,1.92.62,2.64,1.36.76.78.94,1.79,1.1,2.88.02.13.22.13.23,0,.08-.93.15-1.88.73-2.61.63-.78,1.66-1.5,2.68-1.68.08-.01.08-.13,0-.14-.97-.21-1.93-.69-2.53-1.4-.42-.5-.78-1.68-1.03-2.62-.03-.12-.2-.1-.21.02-.1,1.08-.28,2-.92,2.71Z"/>
    <path class="cls-1" d="M791.29,567.08c-1.02,1.14-2.2,1.65-3.81,1.82-.18.02-.19.27-.02.31,1.47.31,2.75.88,3.77,1.94,1.08,1.12,1.35,2.55,1.57,4.11.03.19.31.19.32,0,.11-1.33.21-2.69,1.05-3.73.9-1.12,2.36-2.14,3.83-2.4.12-.02.11-.18,0-.2-1.39-.3-2.75-.99-3.62-2-.6-.71-1.12-2.4-1.47-3.74-.04-.17-.28-.15-.3.03-.15,1.55-.41,2.85-1.32,3.88Z"/>
    <path class="cls-1" d="M641.8,506.46c-1,1.13-2.17,1.63-3.77,1.79-.18.02-.19.27-.02.3,1.45.31,2.71.87,3.72,1.92,1.07,1.11,1.33,2.52,1.55,4.06.03.19.3.19.32,0,.11-1.31.21-2.66,1.03-3.68.89-1.11,2.33-2.11,3.78-2.37.11-.02.11-.18,0-.2-1.37-.3-2.72-.97-3.58-1.98-.6-.7-1.11-2.37-1.45-3.7-.04-.16-.28-.14-.3.03-.15,1.53-.4,2.82-1.3,3.83Z"/>
    <circle class="cls-1" cx="680.15" cy="548.38" r="4.43"/>
    <circle class="cls-1" cx="375.49" cy="588.38" r="2.91"/>
    <circle class="cls-1" cx="594.54" cy="527.79" r="3.06"/>
    <circle class="cls-1" cx="976.67" cy="553.27" r="4.03"/>
    <circle class="cls-1" cx="147.61" cy="528.57" r="3.13"/>
    <circle class="cls-1" cx="736.48" cy="521.16" r="3.13"/>
    <circle class="cls-1" cx="230.99" cy="577.27" r="4.89"/>
    <circle class="cls-1" cx="838.92" cy="548.38" r="4.21"/>
  </g>
  <g>
    <path class="cls-1" d="M205.74,586.19c.13-2.82.83-6.91,2.07-12.16.23-.98,22.7-94.43,66.83-112.39-51.87-.88-63.39,55.61-74.53,110.28-.95,4.64-1.89,9.27-2.85,13.82l-.87,4.1-1.11-4.05c-2.09-7.6-4.33-20.03-6.67-36.97-.88-6.38-1.85-12.86-2.91-19.28-2.27-14.52-5.25-26.39-8.85-35.26-3.56-8.78-8-15.28-13.19-19.32-3.07-2.41-6.21-3.71-9.35-3.88-.23-.01-.46-.02-.69-.02-4.54,0-8.94,2.44-13.1,7.27.66-.06,1.3-.09,1.93-.09.37,0,.73.01,1.08.03,3.68.2,6.88,1.4,9.51,3.57,3.24,2.71,6.09,7.05,8.48,12.9,2.58,6.36,4.76,13.38,6.48,20.86l.06.28-.09.27c-2.26,6.71-4.6,13.49-6.96,20.14-2.14,6.09-4.2,12.02-6.18,17.8-1.98,5.75-3.78,11.35-5.35,16.64-1.58,5.3-2.87,10.32-3.84,14.93l-.84,3.97-1.14-3.89c-2.33-7.97-4.57-20.41-6.68-36.98-2.21-16.24-4.41-29.01-6.53-37.95-1.99-8.34-4.47-15.62-7.35-21.61-6.35-13.03-15.55-19.95-27.35-20.58-.59-.03-1.19-.05-1.8-.05-3.03,0-5.9.36-8.5,1.07-5.12,1.49-9.52,4.09-13.08,7.74-3.39,3.47-5.82,7.5-7.22,11.97-3.1,10.6-.52,17.39,2.2,21.22,3.33,4.69,8.87,7.68,14.83,8,4.88.26,9.34-1.25,12.58-4.25,3.29-3.04,5.09-7.49,5.22-12.78-.14-3.25-1.77-7.07-5-7.81-.1-.02-.2-.04-.3-.06-.17-.03-.34-.05-.5-.06-1.96-.1-3.95,1.08-4.74,2.81-.66,1.46-.59,3.28-.53,4.88.02.57.09,1.23.16,1.92.23,2.18.49,4.66-.4,6.45-1.12,2.26-3.52,3.83-5.84,3.83-.15,0-.3,0-.45-.01-2.69-.14-4.84-1.53-6.38-4.12-1.29-2.14-1.94-4.89-1.93-8.18.02-6.14,1.66-11.66,4.87-16.43,2.28-3.25,5.06-5.59,8.23-6.96,1.81-.8,3.84-1.2,6.03-1.2.18,0,.37,0,.55.02,7.07.38,12.98,7.58,18.07,22.03,4.3,12.13,8.68,33.19,13.02,62.58,2.56,17.69,4.76,29.24,6.51,34.3,3.89,10.62,12.63,16.15,26.72,16.9.61.03,1.23.06,1.86.07-4.02-5.65-6.04-12.82-6-21.35.05-13.33,5.58-31.91,16.43-55.23l1.37-2.94.56,3.19c1.53,8.74,2.93,17.34,4.16,25.58,2.56,17.39,4.76,28.78,6.51,33.84,3.89,10.62,12.63,16.15,26.72,16.9.61.03,1.22.06,1.85.07-4.01-5.58-6.02-12.63-5.99-20.98,0-.83.07-2.65.2-5.4Z"/>
    <path class="cls-1" d="M489.55,489.27c-8.51-9.02-18.9-13.63-30.89-13.7h-1.8c-9.11,0-16.68,2.41-22.46,7.16-7.16,6.56-9.97,14.97-8.34,24.99.39,2.43,1.21,4.95,2.43,7.47,4.71,9.76,14.41,29.86,5.78,62.91,2.67-1.16,5.48-3.79,7.78-7.34,2.92-4.52,9.19-17.29,4.37-38.14l-.28-1.2,1.23-.05c.17,0,.34,0,.51,0,.91,0,1.81.09,2.68.18.84.09,1.63.17,2.42.17h.19c7.3,0,13.15-2.51,17.35-7.42,2.28-2.92,3.44-6.02,3.46-9.19.02-2.84-.92-5.27-2.82-7.39-2.87-2.88-6.84-4.36-11.81-4.39h-.18c-1.8,0-3.7.16-5.68.48,2.65,1.44,4.7,3.96,6.12,7.54.77,2.03,1.16,3.97,1.15,5.77-.02,3.52-1.37,6.01-4.09,7.44-1.04.45-2.13.67-3.29.67-3.57-.02-6.82-1.68-9.67-4.94-3.84-4.6-5.76-10.37-5.72-17.14.03-6.09,1.9-11.2,5.58-15.22,4-4,8.35-6.02,12.94-6.02,9.81,0,19.8,9.38,26.73,25.09,10.32,23.41,12.23,58.67-7.97,80.8-7.65,8.38-19.18,13.18-31.64,13.18-1.22,0-2.46-.05-3.68-.14-16.08-1.25-23.94-11.9-27.71-20.61-2.32-5.36-3.42-11.28-3.27-17.64,2.2-39.93-3.94-54.57-7.62-63.31-1.13-2.69-2.02-4.82-2.36-6.96-.17-1.1.01-1.98.55-2.61.46-.54,1.16-.83,1.96-.83,1.38,0,2.97.86,3.77,2.04,1.91,2.81,3.74,4.12,6.13,4.37.24.02.49.04.73.04,2.8,0,5.54-1.63,6.82-4.07,1.82-3.47.62-8.35-2.79-11.35-3.65-3.22-8.64-3.89-12.19-3.89h-.18c-3.28.02-5.82.61-7.79,1.79-3.35,2.01-5.28,5.45-5.31,9.45-.02,3.54,1.02,7.34,2.35,12.15.44,1.6.88,3.2,1.29,4.8.67,2.6,1.26,5.21,1.76,7.85.6,3.16,1.05,6.35,1.36,9.55.37,3.84.54,7.7.54,11.56,0,4.64-.26,9.27-.7,13.89-.25,2.65-.57,5.28-.94,7.92-.19,1.36-.92,7.68-.7,7.83-2.69-1.83-4.52-4.99-5.32-6.31-1.12-1.85-2.14-3.77-3.08-5.72-2.13-4.42-3.83-9.03-5.27-13.71-1.49-4.84-2.74-9.83-3.95-14.65-1.12-4.44-2.27-9.04-3.6-13.49-1.83-6.12-4.57-13.96-9.48-20.21-3.81-4.85-10.36-10.1-17.32-10.29-.29,0-.58-.01-.87-.01-5.22,0-10.02,1.26-13.95,3.6.34-.05.68-.09,1.04-.1.17,0,.35,0,.53,0,2.15,0,4.24.43,6.2,1.28,2.42,1.04,4.82,2.85,6.59,4.95,1.42,1.68,2.26,3.96,2.37,6.41.26,5.79.55,12.36.58,18.89.05,12.02.06,22.86-.4,33.94-.07,1.66-.13,3.44-.2,5.31-.68,18.61-1.71,46.73-8.31,55.62-.5.66-1.05,1.34-1.65,2.03,3.2-1.42,13.53-6.59,14.46-8.03-.17.26,9.58,6.02,12.36,6.55-.18-.46-.4-1-.66-1.66-.67-1.69-1.56-4.04-1.99-5.63-1.67-6.19-2.64-15.26-2.88-26.95-.03-1.69-.05-3.39-.05-5.08-.01-8.34.22-16.81.44-25.01.21-7.72.52-29.09.56-33.37,2.67,3.29,6.36,23.64,7.65,28.33,2.15,7.8,4.7,15.58,7.58,23.13,2.77,7.27,6.34,15.7,11.72,23.15,11.11,15.38,33.67,25.72,56.14,25.72,34.38,0,57.26-22.45,61.21-60.04,1.25-11.91.37-23.65-2.62-34.89-3.06-11.55-7.74-20.71-13.91-27.25Z"/>
    <path class="cls-1" d="M311.41,486.09c-6.56-6.7-14.03-10.1-22.2-10.1h-3.78c-2.1.05-5.15,1.04-9.06,2.92-3.93,1.89-7.68,4.7-11.17,8.33-3.5,3.65-6.63,8.23-9.3,13.62-2.68,5.42-4.83,11.77-6.37,18.89-1.55,7.13-2.39,15.26-2.5,24.16,0,8.43.83,16.62,2.46,24.33,1.09,4.87,2.78,10.64,5.02,17.14,1.06,2.98,1.94,5.79,2.63,8.35.71,2.62,1.07,5.32,1.07,8,0,1.75-.27,3.54-.8,5.33,4.8-1.21,7.55-4.3,8.38-9.4l.64-3.95,1.32,3.78c2.16,6.15,6.03,10.47,11.5,12.82,3.01,1.19,6.12,1.8,9.23,1.8,9.74,0,18.37-5.56,25.64-16.53,3.15-4.84,5.88-10.41,8.13-16.56,2.26-6.17,3.96-12.36,5.05-18.38,1.14-6.25,1.72-11.88,1.72-16.72,0-9.32-.75-17.78-2.21-25.15-2.82-14.09-7.99-25.08-15.38-32.67ZM304.21,588.1c-2.45,1.18-10.76,5.41-14.78,10.06-.31.35-.75.56-1.2.56s-.9-.2-1.2-.56c-4.02-4.65-12.33-8.87-14.78-10.06-1.4-.68-2.05-2.47-1.45-4,3.68-9.31,5.88-26.48,6.35-49.69l-2.96-2.55c-.49-.42-.78-1.03-.79-1.67-.02-.64.24-1.26.7-1.71l2.7-2.61c-3.77-3.59-5.91-8.68-5.91-14.13,0-6.41,3.12-12.5,8.13-15.9.81-.55,1.7-1.04,2.72-1.5,1.37-.62,2.92-.75,4.06-.84.83-.07,1.65-.11,2.43-.11,3.36,0,6.17.67,8.34,1.98,2.55,1.55,4.71,3.79,6.26,6.48,1.7,2.96,2.6,6.38,2.6,9.89,0,5.4-2.1,10.44-5.8,14l2.84,2.74c.46.45.72,1.07.7,1.71s-.31,1.25-.79,1.67l-3.05,2.63c.48,23.18,2.67,40.33,6.34,49.62.61,1.53-.04,3.32-1.44,4Z"/>
    <path class="cls-1" d="M583.02,581.18c-1.02-.35-2.11-.59-3.22-.7.08.1.16.19.24.3.77,1,1.34,2.16,1.67,3.43.32,1.23.49,2.46.49,3.67,0,1.62-.26,3.25-.79,4.9-1.12,3-2.88,5.06-5.23,6.12-1.22.57-2.46.85-3.69.85-2.14,0-4.46-.63-6.94-1.9-7.97-4.61-21.69-10.79-28.41-7.48l-3.64,1.79s3.47-2.64,5.31-14.03c.31-1.91.45-13.77.62-27.5l.04-3.1.86-.12c.1-.01,2.4-.33,5.93-.33,6.4,0,17.81,1.11,26.22,8.08-.98-3.48-2.9-6.65-5.49-8.99l-.79-.71.75-.76c3.49-3.53,6.23-7.83,8.04-12.59-6.51,4.79-19.42,8.85-29.48,8.85-1.85,0-3.56-.14-5.09-.42l-.85-.15.04-2.9c.53-39.26.59-43.36,8.01-49.11,3.13-2.42,7.53-3.81,12.09-3.81,2.43,0,4.78.41,6.8,1.2,3.11,1.21,5.34,3.58,5.97,6.34.83,3.64-.97,6.79-2.72,9.83-1.77,3.08-3.44,6-2.1,9.11.63,1.48,2.12,2.66,3.89,3.1.7.17,1.42.26,2.14.26,5.6,0,11.38-5.27,13.44-12.25,1.04-3.52,2.42-12.36-7.11-18.51-1.62-1.04-3.48-1.93-5.54-2.63-3.66-1.25-7.63-1.89-11.81-1.89-7.83,0-14.58,2.15-18.61,3.44-1.07.34-1.92.61-2.55.77-4.25,1.02-8.8,1.96-13.24,1.96-2.12,0-4.05-.2-5.92-.62-4.18-.94-7.65-3.03-10.98-5.14,8.62,13.09,21.33,38.48,10.99,94.31-1.66,8.96-3.88,18.98-9.32,27.25,1.16-.41,2.35-.75,3.39-1.04.39-.11.74-.21,1.06-.3,3.14-.94,6.38-1.51,9.65-1.71.66-.04,1.31-.06,1.95-.06,5.95,0,11.22,1.66,17.09,5.39l5,3.21c4.26,2.92,8.07,5.06,11.32,6.38,2.64,1.12,5.4,1.69,8.2,1.69,3.84,0,7.35-.94,10.43-2.8,3.44-2.08,6.11-4.99,7.94-8.67,1.43-2.87,2.16-5.89,2.16-8.97,0-2.38-.43-4.63-1.27-6.66-1.4-3.18-3.66-5.25-6.91-6.35Z"/>
    <path class="cls-1" d="M699.67,598.21c-.45-.04-.91-.06-1.36-.06-2.77,0-5.62.72-8.37,1.41l-1.2.3c-2.64.65-4.96.97-7.09.97-6.67,0-11.37-3.25-13.95-9.66-.88-2.18-1.16-6.22-1.51-11.33-.73-10.51-1.82-26.41-9.41-37.38l-.48-.69.59-.6c13.52-13.73,19.4-33,14.31-46.87-3.2-8.71-10.47-14-20.45-14.88-2.39-.21-5.51-.32-9.27-.32-8.87,0-19.61.58-27.45,1-3.72.2-6.76.36-8.54.41,10.42,21.57,11.13,49.33,9.84,69.04l-.03.46-.36.28c-.61.47-1.12.85-1.64,1.07-1.62.74-3.41,1.14-5.16,1.14-.84,0-1.67-.09-2.47-.27-3.69-.83-6.86-3.48-8.51-6.93-.62,2.03-.74,4.24-.32,6.33.6,2.93,2.26,5.63,4.56,7.42,2.38,1.86,5.67,2.93,9.48,3.07.36,0,.72.01,1.08.01s.71,0,1.06-.01l1.18-.03-.14,1.17c-1.99,16.35-5.41,30.37-7.77,35.78-1.15,2.67-2.59,4.96-4.28,6.81-.15.21-.47.53-1.46,1.39,1.36-.4,2.71-.9,4.06-1.49,2.24-.91,4.96-2.48,8.04-4.63,3.36-2.67,3.82-3.15,3.84-3.17l.64-.86.82.69c4.24,3.55,7.92,6.13,10.95,7.68,1.63.82,3.42,1.54,5.44,2.18-1-.93-1.74-1.71-2.25-2.35-1.01-1.3-1.83-2.7-2.46-4.21-1.81-5.37-2.61-14.59-2.46-28.18l.22-13.67.69-.23c5.94-1.95,12.07-4.99,17.72-8.78l.65-.44.59.52c10.36,9.18,10.7,21.67,11.04,33.75.29,10.3.56,20.02,7.41,26.16,5.69,5.1,14.11,8.14,22.52,8.14h0c4.38,0,8.54-.86,12.03-2.49,2.86-1.32,4.9-2.89,6.26-4.81,1.61-2.25,2.16-5.04,1.45-7.29-1.09-3.45-4.83-5.29-8.04-5.58ZM653.87,523.74c-1.7,2.54-3.59,4.94-5.64,7.2-2.05,2.25-4.26,4.36-6.62,6.3-2.34,1.93-4.83,3.68-7.42,5.24-2.14,1.29-4.36,2.38-6.63,3.39-.63.28-1.25.55-1.89.82.07-.24.15-.49.22-.73.51-1.75.93-3.52,1.27-5.31.33-1.75.46-3.55.64-5.32.45-4.51.73-9.02.82-13.4.1-4.84.07-9.69-.36-14.52-.93-9.5-5.1-20.18-7.11-22.81,5.24-1.21,20.19-.57,28.16,2.48,3.31,1.27,6.23,2.6,8.48,6.11,2.12,3.32,3.22,7.48,3.09,11.72-.17,5.47-2.14,11.14-6.03,17.32-.32.5-.64,1-.97,1.5Z"/>
    <path class="cls-1" d="M787.12,585.9c-2.13-1.77-4.93-2.77-8.3-2.96-.19-.01-.39-.02-.59-.02.17.15.34.31.49.47,1.06,1.12,1.76,2.34,2.08,3.62.3,1.2.42,2.34.36,3.37-.1,1.92-.71,3.69-1.8,5.27-.83,1.2-1.92,2.06-3.26,2.58-2.74.92-5.48,1.39-8.13,1.39-.43,0-.87-.01-1.3-.04-5.1-.29-10.59-2.36-16.31-6.16-2.52-1.62-5.07-3.38-7.58-5.23-3.15-2.36-5.85-4.22-8.5-5.86-1.5-.92-3.03-1.63-4.65-2.37-.97-.44-1.97-.9-2.96-1.41-4.48-2.31-9.49-3.31-14.51-3.34-2.43-.02-4.87.26-7.23.82,1.31-2.3,2.79-4.55,3.71-7.04.9-2.42,1.33-4.99,1.68-7.53.08-.59.16-1.18.23-1.76.1-.78.2-1.56.31-2.33.7-4.92,1.16-9.35,1.38-13.55.19-4.65.3-9.49.32-14.39.09-6.25.25-11.4.46-15.32.26-4.87.59-8.7.97-11.35.67-5.65,1.96-10.33,3.81-13.87,2.86-5.94,7.42-8.96,13.55-8.96.36,0,.73,0,1.11.03,3.77.21,6.85,1.34,9.19,3.39,2.51,2.44,3.68,5.47,3.49,9.02-.11,2.02-.67,4-1.67,5.89-.84,1.65-1.97,3.1-3.38,4.35,3.42-.14,6.4-.88,8.85-2.21,3.9-2.24,5.89-5.14,6.08-8.87.09-1.7-.26-3.43-1.06-5.15-1.31-2.83-3.66-5.23-6.96-7.14-3.84-2.11-8.6-3.34-14.14-3.66-1.17-.07-2.32-.1-3.43-.1-11.71,0-20.13,3.77-25.02,11.2-2.34,3.53-3.85,7.48-4.48,11.71-.22,1.88-.37,3.52-.44,4.85l-.08,3.18c.08,7.5-.07,14.83-.44,21.79-.36,6.66-.78,12.26-1.25,16.63-.8,7.13-2.03,13.78-3.77,20.33-.85,3.18-1.52,5.7-3.37,8.85l-4.86,8.26c2.08-.45,4.84-.7,7.34-.7,4.2,0,8.35.58,12.34,1.73,8.07,2.22,16.62,6.85,25.66,11.75,13.01,7.06,26.46,14.35,38.9,14.35,4.29,0,8.15-.85,11.79-2.58,5.82-2.94,10.68-9.86,8.25-16.85-.63-1.54-1.62-2.92-2.91-4.08Z"/>
    <path class="cls-1" d="M824.23,524.09c-.73-.18-1.49-.38-2.25-.59l-.95-.27.24-.96c.56-2.24,1.04-3.9,1.32-4.89.04-.16.08-.29.12-.4l.11-.46c3.93-15.92,3.69-27.34-.7-33.04-1.92-2.49-4.89-4.47-8.58-5.7-3.65-1.22-7.71-1.84-12.06-1.84-.37,0-.73,0-1.13.01-9.57,0-16.54,2.92-20.72,8.67-3.66,5.03-5.51,12.84-5.51,23.22,0,3.87.33,7.83.62,11.32.23,2.79.65,5.61,1.06,8.33.39,2.62.8,5.34,1.04,8.05.34,3.82.45,7.68.32,11.48-.01.32-.02.65-.02.98-.03,1.54-.06,3.13-.5,4.62-.54,1.85-1.28,3.57-2.18,5.12-1.73,2.99-4.61,5.34-8.09,6.62-2.08.76-4.36,1.15-6.79,1.15-1.36,0-2.76-.12-4.16-.36-2.01-.34-4.1-.79-5.76-2.11-1.82-1.45-2.39-3.87-1.35-5.76.56-1.02,1.52-1.82,2.93-2.46.43-.19.87-.36,1.31-.53.57-.21,1.11-.42,1.61-.68,1.68-.87,2.99-2.51,3.51-4.37,1.03-3.65-1.2-8.14-4.59-9.23-.98-.32-2.05-.47-3.2-.47-2.36,0-4.8.69-6.7,1.89-2.17,1.37-3.91,3.54-4.91,6.1-1.31,3.36-.68,7.02.07,10.48.68,3.15,2.57,6.11,5.32,8.35,2.71,2.21,6.21,3.73,10.41,4.52.83.16,1.68.28,2.53.37,1.17.13,2.37.19,3.56.19,4.66,0,9.36-.99,13.59-2.88,11.9-5.29,17.35-17.85,16.65-38.39l-.02-.57.48-.31c2.8-1.83,6.02-2.79,9.31-2.79,1.28,0,2.56.15,3.79.44,3.16.75,5.75,1.96,8.73,3.21-1.3,5.14-2.08,9.74-2.9,14.61-.03.19-.06.38-.09.57-1.33,8.16-1.93,16.51-1.77,24.81.13,6.73.76,13.48,1.86,20.06.95,5.63,2.5,11.89,6.86,15.6,2.12,1.8,4.89,2.84,7.6,2.84,1.22,0,2.4-.21,3.5-.61,3.76-1.39,6.45-5.24,6.4-9.15,0-.38-.03-.76-.08-1.15-.44-3.33-2.55-6.38-4.6-9.32-.32-.47-.64-.93-.96-1.39-8.18-12.05-12.18-27.45-10.98-42.25.34-4.17,1.03-8.39,1.69-12.47l.17-1.04.91.04c.56.03,1.12.04,1.68.04,2.98,0,5.37-.46,7.74-1.5,3.27-1.43,6.15-3.72,8.34-6.58-2.61.99-5.41,1.51-8.28,1.51-1.88,0-3.74-.23-5.54-.67ZM814.39,518.51l-.2,1.54-1.33-.79c-1.24-.74-2.58-1.51-3.96-2.11-2.29-.99-4.74-1.49-7.29-1.49-2.29,0-4.55.4-6.74,1.2-1.31.48-2.63,1.14-3.92,1.95l-1.36.86-.2-1.59c-.55-4.47-1.25-8.68-1.8-12.06-.62-3.78-1.11-6.76-1.18-8.59-.12-3.66.73-7.32,2.33-10.04,1.75-2.95,4.64-5.14,7.94-6.01,1.07-.28,2.18-.42,3.3-.42,2.26,0,4.51.57,6.49,1.66,3.12,1.71,5.76,4.78,7.39,8.6,2.69,5.28,1.77,17.76.53,27.3Z"/>
    <path class="cls-1" d="M999.17,489.27c-8.51-9.02-18.9-13.63-30.89-13.7h-1.8c-9.11,0-16.68,2.41-22.46,7.16-7.16,6.56-9.97,14.97-8.34,24.99.39,2.43,1.21,4.95,2.43,7.47,4.71,9.76,14.41,29.86,5.78,62.91,2.67-1.16,5.48-3.79,7.78-7.34,2.92-4.52,9.19-17.29,4.37-38.14l-.28-1.2,1.23-.05c.17,0,.34,0,.51,0,.91,0,1.81.09,2.68.18.84.09,1.63.17,2.42.17h.19c7.3,0,13.15-2.51,17.35-7.42,2.28-2.92,3.44-6.02,3.46-9.19.02-2.84-.92-5.27-2.82-7.39-2.87-2.88-6.84-4.36-11.81-4.39h-.18c-1.8,0-3.7.16-5.68.48,2.65,1.44,4.7,3.96,6.12,7.54.77,2.03,1.16,3.97,1.15,5.77-.02,3.52-1.37,6.01-4.09,7.44-1.04.45-2.13.67-3.29.67-3.57-.02-6.82-1.68-9.67-4.94-3.84-4.6-5.76-10.37-5.72-17.14.03-6.09,1.9-11.2,5.58-15.22,4-4,8.35-6.02,12.94-6.02,9.81,0,19.8,9.38,26.73,25.09,10.32,23.41,12.23,58.67-7.97,80.8-7.65,8.38-19.18,13.18-31.64,13.18-1.22,0-2.46-.05-3.68-.14-16.08-1.25-23.94-11.9-27.71-20.61-2.32-5.36-3.42-11.28-3.27-17.64,2.2-39.93-3.94-54.57-7.62-63.31-1.13-2.69-2.02-4.82-2.36-6.96-.17-1.1.01-1.98.55-2.61.46-.54,1.16-.83,1.96-.83,1.38,0,2.97.86,3.77,2.04,1.91,2.81,3.74,4.12,6.13,4.37.24.02.49.04.73.04,2.8,0,5.54-1.63,6.82-4.07,1.82-3.47.62-8.35-2.79-11.35-3.65-3.22-8.64-3.89-12.19-3.89h-.18c-3.28.02-5.82.61-7.79,1.79-3.35,2.01-5.28,5.45-5.31,9.45-.02,3.54,1.02,7.34,2.35,12.15.44,1.6.88,3.2,1.29,4.8.67,2.6,1.26,5.21,1.76,7.85.6,3.16,1.05,6.35,1.36,9.55.37,3.84.54,7.7.54,11.56,0,4.64-.26,9.27-.7,13.89-.25,2.65-.57,5.28-.94,7.92-.19,1.36-.92,7.68-.7,7.83-2.69-1.83-4.52-4.99-5.32-6.31-1.12-1.85-2.14-3.77-3.08-5.72-2.13-4.42-3.83-9.03-5.27-13.71-1.49-4.84-2.74-9.83-3.95-14.65-1.12-4.44-2.27-9.04-3.6-13.49-1.83-6.12-4.57-13.96-9.48-20.21-3.81-4.85-10.36-10.1-17.32-10.29-.29,0-.58-.01-.87-.01-5.22,0-10.02,1.26-13.95,3.6.34-.05.68-.09,1.04-.1.17,0,.35,0,.53,0,2.15,0,4.24.43,6.2,1.28,2.42,1.04,4.82,2.85,6.59,4.95,1.42,1.68,2.26,3.96,2.37,6.41.26,5.79.55,12.36.58,18.89.05,12.02.06,22.86-.4,33.94-.07,1.66-.13,3.44-.2,5.31-.68,18.61-1.71,46.73-8.31,55.62-.5.66-1.05,1.34-1.65,2.03,3.2-1.42,13.53-6.59,14.46-8.03-.17.26,9.58,6.02,12.36,6.55-.18-.46-.4-1-.66-1.66-.67-1.69-1.56-4.04-1.99-5.63-1.67-6.19-2.64-15.26-2.88-26.95-.03-1.69-.05-3.39-.05-5.08-.01-8.34.22-16.81.44-25.01.21-7.72.52-29.09.56-33.37,2.67,3.29,6.36,23.64,7.65,28.33,2.15,7.8,4.7,15.58,7.58,23.13,2.77,7.27,6.34,15.7,11.72,23.15,11.11,15.38,33.67,25.72,56.14,25.72,34.38,0,57.26-22.45,61.21-60.04,1.25-11.91.37-23.65-2.62-34.89-3.06-11.55-7.74-20.71-13.91-27.25Z"/>
  </g>
</svg>